<svg xmlns="http://www.w3.org/2000/svg" fill-rule="evenodd" viewBox="0 0 19200 6033" shape-rendering="geometricPrecision" text-rendering="geometricPrecision" image-rendering="optimizeQuality" clip-rule="evenodd">
  <defs>
    <style>
<![CDATA[
    .fil12 {fill:#E75652}
    .fil6 {fill:#E53749}
    .fil3 {fill:#E53249}
    .fil2 {fill:#C73443}
    .fil10 {fill:#A1323B}
    .fil5 {fill:#9A313A}
    .fil7 {fill:#9A313A}
    .fil11 {fill:#8C2F37}
    .fil1 {fill:#862E36}
    .fil4 {fill:#812E35}
    .fil14 {fill:#642B33}
    .fil9 {fill:#652A31}
    .fil13 {fill:#5D2B32}
    .fil8 {fill:#572D31}
    .fil0 {fill:#2D4C72}
   ]]>
    </style>
  </defs>
  <g id="Camada_x0020_1">
    <path d="M8715 548v1920c0 97 186 56 452 56V1206l1010 1249c83 103 39 69 440 69V547c0-96-173-56-433-56v1299l-538-667c-94-119-178-218-269-333-282-356-170-299-605-299-43 0-56 13-56 56zm8603 0v1977h433V1188l1016 1262c84 111 98 75 434 75V492c-542 0-433-117-433 602v678l-918-1134c-149-182-63-146-475-146-43 0-56 13-56 56zm-3163 866h-282V849c161 0 527-20 527 282 0 131-110 282-245 282zm-715 1111h433v-753c247 0 251 84 387 309l253 444h489c-22-94-212-387-263-472l-207-339c-47-58-59-44-95-93 28-13 49-19 78-34 70-38 149-98 197-161 266-354 86-934-539-934h-734v2033zM6569 548v1111c0 393 108 664 433 810 308 138 862 100 1097-127 128-123 221-290 221-532V549c0-96-173-56-433-56v1205c0 490-287 471-546 471-117 0-251-124-289-220-56-143-34-1010-31-1249 2-248 64-207-395-207-43 0-56 13-56 56zm9601 508c16 187 173 422 188 602h-414l158-464c23-71 20-103 68-139zm-979 1468h433c68-129 129-365 188-489h697c19 82 64 187 94 264 106 270 1 226 489 226 93 0 32-93-25-219-42-93-72-174-109-267-182-455-423-993-591-1442-49-131-11-104-348-104-69 0-109 159-135 223l-401 1030c-62 154-286 693-293 780zM11877 548v1920c0 96 173 56 433 56v-847h640v-358h-640V848h659c37-446 496-358-1035-358-43 0-56 13-56 56zm-847 0v1977c266 0 452 40 452-56V549c0-93-148-56-395-56-43 0-56 13-56 56zM6569 3710c0 423 551 423 711 240 145-165 99-662 99-937h-169v715c0 202-196 188-301 188-140 0-188-139-188-282v-621h-151v697zm339 1243h151v508c-155 0-313-1-331-232-13-163 106-276 181-276zm151-433v301h-132c-424 0-546 772 56 772 81 0 245-20 245-94V4464c-121 0-169-17-169 56zm4480-847c0-159 109-264 282-264 94 0 56 334 56 508-99 26-189 20-260-41-44-38-79-130-79-203zm339-395c-596 0-548 530-382 683 196 181 551 101 551-5V2939h-169v339zm1374 131l113 19v489c-200 48-337-30-349-231-8-139 94-278 236-278zm113-113c-306-147-701 336-410 654 160 175 376 104 560 61V2938h-151v358zm-2956 1581c-6-77-3-75-94-75-43 0-56 13-56 56v640c0 67 37 56 113 56 87 0 57-150 57-245v-301c272-144 302-112 301 226 0 323-36 320 113 320 99 0 56-213 56-489 0-155-89-282-245-282-75 0-191 65-245 94zm-734 471c0-156 112-132 282-132 0 106 33 226-169 226-48 0-113-41-113-94zm-113-489c14 58 24 55 38 113 133-11 47-56 245-56 88 0 113 97 113 169-160 0-403-18-442 217-32 192 183 353 399 228 37-21 23-14 44-32 90 66-12 56 169 56-38-457 61-772-282-772-155 0-176 51-282 75zm2334 489c0-152 32-132 282-132v169s-282 143-282-38zm-113-489c8 96 14 25 38 113 47-11 351-176 358 113-121 0-254-12-353 61-178 131-98 428 146 428 130 0 141-53 226-75 22 83 42 56 151 56-114-238 172-772-301-772-129 0-170 54-264 75zm527-1055c0-118 202-94 282-94 0 106 33 226-169 226-72 0-113-56-113-132zm-113-433c22 42 31 57 56 94 60-14 339-181 339 113-242 0-433-4-433 282 0 169 255 287 433 132 90 66-12 56 169 56 0-107-19-131-19-244 0-259 57-528-263-528-137 0-201 40-282 94zm-2616 38c103 0 143 75 151 169h-301c2-106 45-169 151-169zm-320 245c0 303 238 532 602 339l-22-112c-104 24-133 75-262 39-98-27-147-90-150-209h471c0-632-640-510-640-56zm4687-245c122 0 132 132 151 169h-320c22-92 55-169 169-169zm-320 207c0 421 281 547 602 377-11-46-20-76-38-113-359 172-393-126-414-169h471c0-186-31-433-301-433-182 0-320 159-320 339zM7661 4934c148 0 128 103 169 188h-320c7-87 62-188 151-188zm-301 207c0 252 64 452 377 452 94 0 163-42 226-75-14-58-24-55-38-113-211 112-357 75-414-169h471c0-643-621-471-621-94zm301-1770v-75h-132v753h151c0-460-73-621 226-621 142 0 94 430 94 621h151c0-320 74-772-226-772-140 0-171 69-264 94zm847 2184h151v-471h320c0-163 37-132-320-132v-301c288 0 319 36 358-132h-508v1035zm1995-2089c0 337 320 178 320 395 0 124-222 71-320 19-20 41-33 74-38 132 239 115 527 39 527-169 0-256-339-219-339-358 0-142 263-47 301-38v-132c-104-24-65-38-207-38-124 0-245 66-245 188zm-1638 583c112 0 90-33 144-157 47-107 227-533 232-596h-132l-226 546c-32-137-156-406-188-546h-151l249 674c20 49 12 79 71 79zm2165 1130c0 353 343 475 602 301-21-39-26-45-38-94-128 11-1 38-245 38-249 0-249-713 245-452 2-83 13-59 19-132-322-155-584 47-584 339zm-1845-302l-21-75-129-1v753c224 0 169 38 169-565 180-95 102-48 226-38 14-61 32-83 38-151-150-36-132-25-282 75zm979-1506l-21-75-129-1v753c224 0 169 38 169-565 144-76 120-62 226-38 14-61 32-83 38-151-150-36-132-25-282 75zm-1901-18v640c0 83 169 83 169 0v-640c0-83-169-83-169 0zm2843 696h150v-753h-150zm-2862-979c0 190 292 96 181-49-79-104-181 8-181 49zm2843 0v56c37 25 52 34 94 56l88-63c2-3 6-8 9-10l17-21c-16-33-22-61-38-94-68-16-169-33-169 75z" class="fil0"/>
    <g id="_1216816916656">
      <path d="M27 5366c34 217 240 349 447 212 68-45 122-96 194-146 207-144 676-549 946-745l-37-68-738 532c-57 44-118 89-187 133-154 100-328 304-529 164l-96-82zm2325-906c36 57 84 100 136 148 37 34 46 36 84 67l81 60c158 58 232 243 386 263-29-106-78-104-181-213-58-61-108-121-164-191 56-81 61-26 109-132-44-70-57-56-116-108-54-48-55-80-130-99-23 45-65 74-105 100 25 41 47 65 76 101 48 59 60 43 36 100-33 36-84-16-105-31-37-27-58-44-107-65z" class="fil1"/>
      <path d="M27 5366l96 82c201 140 375-64 529-164 69-44 129-90 187-133l738-532 37 68c-270 196-739 601-946 745-72 50-126 102-194 146-207 137-413 6-447-212zM3001 0h140c26 8 52 20 78 37 213 138 188 1076 309 1338-23 90 2 294 47 357 10 125 59 305 86 441 25 126 81 305 83 425l599-380c103-68 186-130 290-200 85-57 223-136 295-203-80 106-413 297-556 412-174 139-377 258-562 379-383 251-757 497-1131 752-196 134-383 233-569 371-188 139-372 261-550 390l-970 696c-83 34-112-29-140-71-46 73-60 162-47 274 120 78 261-24 361-92l942-657c427-299 830-589 1257-889 211-148 414-294 627-445l1256-890c93-69 243-149 277-273 38-137-213-205-304-153-185-52-386-21-594-38-21-97-34-64-61-122-19-41-32-100-50-142 51-27 5-13 80-19l264-18c284-15 1178-39 1399 69 75 37 149 126 162 215 30 211-158 332-313 418-320 177-618 368-921 567-83 55-149 93-230 147l-642 433c-2 2-9 13-10 10-2-3-7 7-10 10-56 0-54 0-96 29l-207 152c-101 73-235 131-256 210-60 14-794 520-872 610-71 4-220 115-275 181L579 5536c-139 99-257 185-440 82-355-198 49-927 179-1247 87-215 549-1096 562-1151l-290-256c-193-152-577-397-421-587 105-128 581-270 761-331l774-261c44-29 204-309 238-364 40-65 71-106 113-170 39-60 62-104 101-162 77-114 141-211 218-327l337-492c42-56 66-102 112-152 53-57 111-99 174-117zM1053 2956c-79-18-268-183-341-242-148-118-277-184-280-304l534-181c188-61 384-113 577-158-73 138-460 760-489 885zm1167-1295l21 157c126-8 236-26 359-44 77-11 292-64 351-23-34 81-324 44-533 132 115 0 395-64 536-75l245 1167c-153 81-979 652-1186 791-89-60-169-127-249-202l-253-212c17 146-23 51-53 132 107 131 275 280 395 395l-57 43c-54-56-315-264-404-290 57 85 299 235 358 322L711 4704c-72 48-88 60-204 60-39-168 104-370 176-521l319-679c16-38 20-56 38-94 1-2 16-32 20-37 37-57 8-17 36-44-16-81-2-81 34-145l81-118c3-3 8-7 12-11l612-1119c19-69 147-265 198-293 28-67 41-78 79-137l515-765c46-63 42-83 140-85 17 35 130 701 132 772-108 52-592 108-678 173zm3244-333c165-2 311-22 438 73 93 69 165 281 27 347-66-81 3-74-77-146-78-69-316-249-388-275zM3222 4876c280 142 517 493 599 395 59-131-10-182-19-320 35-18 64-37 94-54 44 85 110 287 121 398 47 470-426 20-532-102-150-173-229-184-263-317zm1190 232c92 71 183 424 144 578-48 186-231 340-476 268 143 26 286-149 318-276 63-247-66-331-82-536l-390-1332c-41-27-46-15-109 7-51 18-84 30-125 46-70 28-182 86-247 57 9 97 302 1039 356 1203 136 408-377-116-512-242l-486-419c-48 106-53 51-109 132 56 70 106 130 164 191 103 110 152 107 181 213-154-20-228-206-386-263 31 61 42 65 94 104 43 32 59 48 99 89l490 451c49 41 65 47 112 95l388 365c121 97 316 273 557 156 434-212 124-775 23-1074l-379-1155c-13 136 125 533 172 685s194 547 203 657z" class="fil2"/>
      <path d="M4929 1815c-80 106-413 297-556 412-174 139-377 258-562 379-383 251-757 497-1131 752-196 134-383 233-569 371-188 139-372 261-550 390l-970 696c-83 34-112-29-140-71-46 73-60 162-47 274 120 78 261-24 361-92l942-657c427-299 830-589 1257-889 211-148 414-294 627-445l1256-890c93-69 243-149 277-273 38-137-213-205-304-153 114 40 175 104 108 196z" class="fil3"/>
      <path d="M3337 3539c36 123-33-88 10 42l22 52c46 3 103 7 147-5 119-31-1-16 75-56 21-11 81-21 115-34 43-17 61-33 134-34l86 305 390 1332c61 17 81 14 96-34-9-110-157-504-203-657-47-153-184-549-172-685 9-68-45-226-65-301-23-86-73-219-75-315-56 0-54 0-96 29l-207 152c-101 73-235 131-256 210z" class="fil4"/>
      <path d="M3632 1381h110c22 82 56 131 59 234 128 2 548-25 660-6l83 29-691 75c217 0 379-19 607-19 107 0 214 1 321-1 144-2 204-19 148 122 67-92 6-156-108-196-185-52-386-21-594-38-21-97-34-64-61-122-19-41-32-100-50-142l-457 49c-4 2-11 5-14 7-3 1-10 4-13 7z" class="fil5"/>
      <path d="M3222 4876c34 133 113 144 263 317 106 122 579 572 532 102-11-111-78-313-121-398-30 17-60 35-94 54 9 138 78 189 19 320-82 97-319-253-599-395z" class="fil6"/>
      <path d="M3368 3633l63 259c2 4 5 11 6 14s4 9 6 14c65 30 177-29 247-57 41-16 74-28 125-46 63-22 68-34 109-7l-86-305c-73 1-91 17-134 34-33 13-93 23-115 34-76 40 44 25-75 56-45 12-101 8-147 5z" class="fil7"/>
      <path d="M3576 1732c124 1 183-10 278-18l691-75-83-29c-112-19-532 8-660 6-3-103-37-152-59-234h-110l-104-7c-23 90 2 294 47 357z" class="fil8"/>
      <path d="M2032 1703c-51 27-179 224-198 293l441-77c34-6 48-7 80-14l63-22c209-88 499-51 533-132-59-41-274 12-351 23-123 18-234 36-359 44l-21-157c-74-5-129 15-188 42z" class="fil9"/>
      <path d="M4315 5142c16 206 145 289 82 536-32 126-175 302-318 276 245 72 428-82 476-268 40-154-51-507-144-578-15 48-34 51-96 34z" class="fil10"/>
      <path d="M1128 3401c45 75 2 11 59 61 28 24 40 38 68 63 31 28 108 90 136 106 89 26 350 234 404 290l57-43c-120-116-288-264-395-395 30-81 69 14 53-132-81-57-89-86-176-132-33 90-14 32-69 94 38 88 117 90 78 169-30 19 34 37-72 9l-144-91z" class="fil11"/>
      <path d="M5464 1327c72 26 310 205 388 275 80 71 11 65 77 146 138-66 67-278-27-347-128-95-274-74-438-73z" class="fil12"/>
      <path d="M2190 4330c56 53 87 113 162 130 48 21 70 38 107 65 21 15 73 67 105 31 24-57 11-41-36-100-29-36-51-61-76-101 39-26 82-55 105-100l-92-106c-71 4-220 115-275 181z" class="fil13"/>
      <path d="M1095 3389c23 18 10 6 33 12l144 91c105 28 42 10 72-9 39-79-40-82-78-169 55-62 36-4 69-94-43-65-53-53-112-105-4 3-10 8-12 11l-81 118c-37 64-50 64-34 145z" class="fil14"/>
    </g>
  </g>
</svg>
