<?xml version="1.0" standalone="no"?>
<!DOCTYPE svg PUBLIC "-//W3C//DTD SVG 20010904//EN"
 "http://www.w3.org/TR/2001/REC-SVG-20010904/DTD/svg10.dtd">
<svg version="1.0" xmlns="http://www.w3.org/2000/svg"
 width="1080.000000pt" height="1080.000000pt" viewBox="0 0 1080.000000 1080.000000"
 preserveAspectRatio="xMidYMid meet">
<metadata>
Created by potrace 1.11, written by Peter Selinger 2001-2013
</metadata>
<g transform="translate(0.000000,1080.000000) scale(0.100000,-0.100000)"
fill="#000000" stroke="none">
<path d="M5292 10763 c-80 -40 -200 -137 -246 -199 -17 -21 -33 -41 -37 -44
-5 -4 -271 -389 -588 -850 -162 -237 -591 -881 -635 -955 -27 -44 -101 -159
-165 -255 -65 -96 -142 -215 -172 -265 -29 -49 -59 -99 -66 -110 -7 -11 -16
-27 -20 -35 -14 -31 -177 -287 -219 -345 -76 -107 80 -47 -1349 -525 -842
-282 -989 -337 -1210 -448 -318 -159 -400 -297 -301 -507 77 -165 234 -318
641 -624 83 -62 155 -118 160 -125 6 -6 44 -40 85 -76 41 -36 88 -77 105 -92
16 -14 39 -35 51 -45 64 -55 175 -153 213 -189 l45 -42 -34 -73 c-18 -41 -200
-407 -404 -814 -408 -813 -489 -979 -581 -1195 -34 -80 -119 -274 -189 -432
-220 -501 -292 -713 -362 -1063 -13 -68 -12 -301 3 -370 39 -189 147 -311 341
-388 144 -56 288 -44 445 38 71 37 230 143 235 157 2 4 10 8 18 8 8 0 14 4 14
9 0 5 8 12 18 15 9 3 28 16 42 29 14 12 70 56 125 97 190 140 490 365 495 370
3 3 29 23 59 44 30 21 59 43 65 48 6 5 277 208 601 450 761 568 1078 805 1090
816 6 4 26 19 45 32 19 14 41 31 48 38 7 6 35 26 60 44 26 17 49 34 52 37 3 4
40 32 83 64 l78 58 86 -90 c62 -65 103 -99 147 -121 37 -19 72 -45 89 -68 59
-79 218 -228 352 -329 135 -103 184 -147 185 -168 0 -17 62 -78 135 -134 39
-29 106 -87 150 -129 72 -68 234 -220 321 -299 17 -15 78 -71 134 -123 57 -52
112 -103 124 -113 12 -10 44 -40 71 -65 204 -189 273 -251 323 -290 52 -40
147 -127 396 -363 50 -47 127 -119 171 -160 44 -42 115 -109 159 -150 43 -41
84 -79 90 -84 33 -31 209 -167 261 -202 153 -103 296 -154 440 -158 128 -4
205 13 320 70 231 114 362 296 391 543 9 77 9 121 0 223 -9 108 -10 118 -46
264 -41 174 -81 289 -231 676 -52 135 -88 243 -394 1174 -109 330 -233 708
-277 840 -49 145 -82 261 -84 292 -6 112 -53 305 -140 583 -63 201 -100 352
-109 450 -5 51 -4 56 22 76 16 12 195 133 398 270 204 137 458 308 565 381
107 72 240 160 295 194 109 68 367 235 565 364 351 229 921 582 1115 691 260
145 388 219 470 273 102 66 257 210 288 266 37 68 61 123 73 168 15 57 11 219
-6 262 -29 70 -47 103 -86 155 -89 117 -172 171 -328 210 -61 16 -132 31 -156
35 -25 3 -56 8 -70 10 -14 2 -52 6 -85 10 -33 3 -78 8 -100 10 -96 11 -209 19
-465 30 -110 5 -978 5 -1090 1 -41 -2 -154 -7 -250 -10 -96 -4 -197 -9 -225
-11 -54 -5 -146 -11 -295 -20 -184 -12 -199 -14 -227 -28 -15 -8 -57 -18 -93
-22 -69 -8 -76 -9 -185 -19 -38 -4 -83 -9 -100 -11 -16 -2 -57 -7 -90 -10 -68
-7 -136 -14 -180 -20 -16 -2 -61 -7 -100 -11 -38 -3 -74 -8 -80 -9 -38 -11
-55 -18 -55 -26 0 -5 -6 -7 -12 -4 -7 2 -48 6 -91 9 -42 3 -82 8 -87 11 -17
11 -72 211 -95 347 -3 18 -10 58 -15 88 -8 50 -14 92 -25 175 -2 17 -9 64 -14
105 -6 41 -13 101 -16 133 -3 32 -7 72 -10 90 -2 18 -9 75 -15 127 -11 93 -17
144 -25 205 -3 17 -9 68 -15 115 -12 95 -11 86 -40 265 -56 346 -134 578 -230
687 -26 30 -67 60 -112 83 l-71 35 -141 0 -141 -1 -73 -36z m-319 -1265 c13
-62 37 -176 41 -198 2 -14 11 -63 20 -110 19 -103 24 -135 32 -179 3 -18 8
-43 10 -55 2 -11 20 -118 39 -236 19 -118 38 -231 42 -250 3 -19 7 -42 8 -50
5 -37 18 -126 20 -140 2 -8 6 -45 10 -81 l7 -66 -69 -21 c-71 -21 -190 -51
-233 -58 -14 -2 -45 -9 -70 -14 -25 -5 -60 -12 -78 -15 -85 -14 -474 -97 -560
-120 -52 -14 -121 -37 -152 -51 -37 -16 -80 -27 -121 -29 -85 -4 -123 -12
-193 -41 -33 -13 -61 -22 -64 -20 -15 15 61 133 533 831 67 99 216 320 330
490 296 439 272 410 348 423 83 15 94 14 100 -10z m3877 -1747 c21 -17 25 -28
24 -68 -1 -66 -29 -134 -64 -158 -16 -11 -26 -23 -24 -27 3 -5 2 -7 -3 -6 -4
2 -57 -31 -118 -73 -90 -61 -261 -174 -343 -224 -9 -5 -97 -67 -196 -136 -264
-183 -322 -221 -746 -489 -425 -268 -452 -285 -559 -355 -93 -60 -104 -61
-107 -13 -1 20 -8 70 -14 110 -7 40 -14 82 -15 93 -2 11 -13 61 -25 110 -12
50 -23 98 -25 108 -2 10 -6 26 -9 35 -3 9 -7 28 -10 42 -2 14 -13 63 -25 110
-11 47 -39 168 -61 270 -22 102 -42 194 -45 205 -9 45 -44 222 -49 250 -2 17
-8 50 -12 75 -15 95 -20 90 71 91 44 0 96 2 115 3 68 6 215 19 235 22 11 1 99
5 195 8 96 3 218 8 270 11 52 2 165 7 250 11 85 3 156 7 157 8 1 1 251 3 555
4 533 2 554 1 578 -17z m-3519 -331 c15 -74 40 -189 54 -255 14 -66 35 -164
45 -217 11 -54 24 -117 30 -140 5 -24 27 -128 49 -233 103 -491 183 -871 206
-979 14 -66 24 -120 23 -121 -151 -87 -1214 -788 -1323 -872 -5 -5 -55 -38
-110 -75 -55 -37 -163 -110 -240 -163 -77 -53 -211 -144 -297 -201 l-157 -106
-78 58 c-99 73 -211 164 -282 230 -31 29 -105 93 -166 144 -60 51 -121 102
-135 114 -14 11 -50 41 -80 66 -30 25 -71 59 -90 77 -19 18 -43 36 -52 39 -10
3 -18 9 -18 13 0 5 -17 20 -37 34 -21 14 -49 36 -63 49 -50 48 -142 118 -178
137 -20 11 -46 34 -57 51 -11 18 -55 59 -97 91 -43 33 -78 61 -78 63 0 4 85
161 100 186 5 8 23 42 41 75 17 33 51 94 74 135 23 41 61 111 85 155 44 82
160 294 255 465 29 52 70 127 90 165 21 39 59 108 85 155 26 47 64 117 85 155
21 39 61 113 90 165 29 52 67 122 85 155 44 82 103 190 105 192 0 1 17 4 35 7
19 2 73 11 120 20 47 8 99 18 115 21 17 2 40 7 51 9 12 2 39 7 60 10 46 8 200
34 230 40 12 2 39 7 60 11 149 23 274 48 322 65 31 10 93 21 137 25 44 3 87 8
95 10 8 2 37 6 63 10 27 3 128 19 225 36 97 17 191 32 207 35 17 2 41 6 54 9
13 2 49 7 80 11 31 3 57 7 59 9 1 1 23 2 49 1 l46 -1 28 -135z m-2592 -387
c-18 -32 -120 -206 -227 -388 -107 -181 -204 -346 -215 -365 -10 -19 -23 -39
-27 -45 -4 -5 -21 -35 -37 -65 -17 -30 -50 -89 -74 -130 -110 -192 -242 -452
-254 -502 -4 -16 -11 -28 -16 -28 -15 0 -111 50 -146 76 -17 13 -34 24 -37 24
-5 0 -73 49 -116 83 -8 7 -49 39 -90 72 -41 32 -104 83 -140 113 -36 30 -74
61 -85 71 -11 9 -83 63 -160 121 -227 170 -311 266 -329 375 l-7 40 143 49
c370 126 969 327 1018 340 30 8 78 22 105 30 28 8 84 24 125 36 95 28 571 149
588 149 9 1 2 -19 -19 -56z m4081 -1917 c0 -2 -8 -10 -17 -17 -16 -13 -17 -12
-4 4 13 16 21 21 21 13z m-80 -60 c0 -2 -8 -10 -17 -17 -16 -13 -17 -12 -4 4
13 16 21 21 21 13z m-40 -30 c0 -2 -8 -10 -17 -17 -16 -13 -17 -12 -4 4 13 16
21 21 21 13z m-190 -140 c0 -2 -8 -10 -17 -17 -16 -13 -17 -12 -4 4 13 16 21
21 21 13z m-4526 -163 c8 -8 12 -9 40 -12 7 0 19 -14 26 -31 7 -16 26 -38 44
-48 17 -10 70 -54 117 -98 105 -97 117 -107 215 -180 43 -33 85 -67 92 -77 31
-41 107 -108 292 -255 107 -86 227 -187 265 -225 l70 -68 -30 -25 c-16 -13
-35 -29 -42 -34 -7 -6 -16 -10 -22 -10 -5 0 -11 -4 -13 -8 -1 -5 -25 -24 -52
-43 -80 -56 -96 -68 -313 -224 -114 -82 -213 -154 -220 -160 -6 -5 -27 -20
-45 -33 -18 -13 -69 -49 -113 -81 -44 -32 -210 -152 -370 -266 -340 -244 -566
-408 -615 -445 -65 -48 -144 -92 -194 -107 -59 -18 -193 -26 -202 -12 -11 18
-11 141 1 208 25 144 56 215 292 671 27 52 65 131 85 175 39 86 127 272 277
588 34 70 61 129 61 131 0 2 31 69 69 149 39 79 88 189 111 243 48 116 76 174
110 229 33 53 48 64 64 48z m4126 -107 c0 -2 -8 -10 -17 -17 -16 -13 -17 -12
-4 4 13 16 21 21 21 13z m-70 -70 c0 -2 -8 -10 -17 -17 -16 -13 -17 -12 -4 4
13 16 21 21 21 13z m-37 -51 c-3 -9 -8 -14 -10 -11 -3 3 -2 9 2 15 9 16 15 13
8 -4z m20 -145 c16 -36 25 -64 32 -98 14 -75 107 -437 116 -454 6 -12 18 -53
26 -92 27 -130 164 -602 374 -1286 91 -295 133 -430 235 -750 75 -235 71 -315
-17 -312 -27 1 -166 63 -179 80 -7 10 -68 52 -74 52 -3 0 -19 12 -35 27 -16
16 -36 33 -43 38 -12 9 -125 109 -283 250 -38 34 -108 100 -155 145 -47 46
-152 141 -235 213 -82 71 -177 153 -210 182 -109 95 -506 434 -523 447 -9 7
-30 32 -46 56 -16 23 -65 69 -110 102 -44 33 -103 85 -131 116 -53 60 -98 93
-154 112 -19 7 -41 22 -49 34 -9 12 -44 54 -79 94 l-63 72 48 40 c26 22 65 54
87 72 22 17 47 36 55 43 232 187 1058 755 1300 894 l75 43 11 -42 c6 -24 18
-59 27 -78z m984 -252 c-3 -8 -6 -5 -6 6 -1 11 2 17 5 13 3 -3 4 -12 1 -19z"/>
</g>
</svg>
